<mxfile host="app.diagrams.net" modified="2022-06-27T18:21:41.451Z" agent="5.0 (Macintosh; Intel Mac OS X 10_15_7) AppleWebKit/537.36 (KHTML, like Gecko) Chrome/102.0.0.0 Safari/537.36" etag="3kdSJTKHxD4n_SETqXZD" version="20.0.3" type="github">
  <diagram id="kcx2VgwicPF3XpdeWggN" name="第 1 页">
    <mxGraphModel dx="863" dy="639" grid="1" gridSize="10" guides="1" tooltips="1" connect="1" arrows="1" fold="1" page="1" pageScale="1" pageWidth="827" pageHeight="1169" math="0" shadow="0">
      <root>
        <mxCell id="0" />
        <mxCell id="1" parent="0" />
        <mxCell id="RXU15xT9O2bPjrLVa0v2-6" style="rounded=0;orthogonalLoop=1;jettySize=auto;html=1;entryX=0;entryY=0.5;entryDx=0;entryDy=0;fontSize=25;exitX=1;exitY=0.5;exitDx=0;exitDy=0;strokeWidth=2;sketch=1;" edge="1" parent="1" source="RXU15xT9O2bPjrLVa0v2-1" target="RXU15xT9O2bPjrLVa0v2-2">
          <mxGeometry relative="1" as="geometry" />
        </mxCell>
        <mxCell id="RXU15xT9O2bPjrLVa0v2-1" value="&lt;font style=&quot;font-size: 25px;&quot;&gt;create&lt;/font&gt;" style="rounded=1;whiteSpace=wrap;html=1;fillColor=#6d8764;fontColor=#ffffff;strokeColor=#3A5431;" vertex="1" parent="1">
          <mxGeometry x="40" y="280" width="110" height="50" as="geometry" />
        </mxCell>
        <mxCell id="RXU15xT9O2bPjrLVa0v2-2" value="&lt;span style=&quot;font-size: 25px;&quot;&gt;ready&lt;/span&gt;" style="rounded=1;whiteSpace=wrap;html=1;fillColor=#0050ef;fontColor=#ffffff;strokeColor=#001DBC;" vertex="1" parent="1">
          <mxGeometry x="270" y="380" width="110" height="50" as="geometry" />
        </mxCell>
        <mxCell id="RXU15xT9O2bPjrLVa0v2-13" style="edgeStyle=none;rounded=0;orthogonalLoop=1;jettySize=auto;html=1;entryX=0.625;entryY=1;entryDx=0;entryDy=0;entryPerimeter=0;fontSize=25;strokeWidth=2;sketch=1;" edge="1" parent="1" source="RXU15xT9O2bPjrLVa0v2-3" target="RXU15xT9O2bPjrLVa0v2-4">
          <mxGeometry relative="1" as="geometry" />
        </mxCell>
        <mxCell id="RXU15xT9O2bPjrLVa0v2-14" style="edgeStyle=none;rounded=0;orthogonalLoop=1;jettySize=auto;html=1;entryX=0;entryY=0.5;entryDx=0;entryDy=0;fontSize=25;strokeWidth=2;exitX=1;exitY=0.5;exitDx=0;exitDy=0;sketch=1;" edge="1" parent="1" source="RXU15xT9O2bPjrLVa0v2-3" target="RXU15xT9O2bPjrLVa0v2-5">
          <mxGeometry relative="1" as="geometry" />
        </mxCell>
        <mxCell id="RXU15xT9O2bPjrLVa0v2-3" value="&lt;span style=&quot;font-size: 25px;&quot;&gt;runing&lt;/span&gt;" style="rounded=1;whiteSpace=wrap;html=1;fillColor=#60a917;fontColor=#ffffff;strokeColor=#2D7600;" vertex="1" parent="1">
          <mxGeometry x="510" y="380" width="110" height="50" as="geometry" />
        </mxCell>
        <mxCell id="RXU15xT9O2bPjrLVa0v2-11" style="edgeStyle=none;rounded=0;orthogonalLoop=1;jettySize=auto;html=1;entryX=0.5;entryY=0;entryDx=0;entryDy=0;fontSize=25;strokeWidth=2;sketch=1;" edge="1" parent="1" source="RXU15xT9O2bPjrLVa0v2-4" target="RXU15xT9O2bPjrLVa0v2-2">
          <mxGeometry relative="1" as="geometry" />
        </mxCell>
        <mxCell id="RXU15xT9O2bPjrLVa0v2-4" value="&lt;span style=&quot;font-size: 25px;&quot;&gt;block&lt;/span&gt;" style="rounded=1;whiteSpace=wrap;html=1;fillColor=#e51400;fontColor=#ffffff;strokeColor=#B20000;" vertex="1" parent="1">
          <mxGeometry x="390" y="170" width="110" height="50" as="geometry" />
        </mxCell>
        <mxCell id="RXU15xT9O2bPjrLVa0v2-5" value="&lt;span style=&quot;font-size: 25px;&quot;&gt;stop&lt;/span&gt;" style="rounded=1;whiteSpace=wrap;html=1;fillColor=#647687;fontColor=#ffffff;strokeColor=#314354;" vertex="1" parent="1">
          <mxGeometry x="760" y="270" width="110" height="50" as="geometry" />
        </mxCell>
        <mxCell id="RXU15xT9O2bPjrLVa0v2-12" value="" style="endArrow=classic;startArrow=classic;html=1;rounded=0;fontSize=25;strokeWidth=2;entryX=0;entryY=0.5;entryDx=0;entryDy=0;exitX=1;exitY=0.5;exitDx=0;exitDy=0;sketch=1;" edge="1" parent="1" source="RXU15xT9O2bPjrLVa0v2-2" target="RXU15xT9O2bPjrLVa0v2-3">
          <mxGeometry width="50" height="50" relative="1" as="geometry">
            <mxPoint x="400" y="440" as="sourcePoint" />
            <mxPoint x="450" y="390" as="targetPoint" />
          </mxGeometry>
        </mxCell>
        <mxCell id="RXU15xT9O2bPjrLVa0v2-15" value="init process" style="text;html=1;align=center;verticalAlign=middle;resizable=0;points=[];autosize=1;strokeColor=none;fillColor=none;fontSize=25;rotation=40;" vertex="1" parent="1">
          <mxGeometry x="145" y="320" width="150" height="40" as="geometry" />
        </mxCell>
        <mxCell id="RXU15xT9O2bPjrLVa0v2-16" value="scheduler" style="text;html=1;align=center;verticalAlign=middle;resizable=0;points=[];autosize=1;strokeColor=none;fillColor=none;fontSize=25;" vertex="1" parent="1">
          <mxGeometry x="381" y="404" width="130" height="40" as="geometry" />
        </mxCell>
        <mxCell id="RXU15xT9O2bPjrLVa0v2-17" value="interrupt" style="text;html=1;align=center;verticalAlign=middle;resizable=0;points=[];autosize=1;strokeColor=none;fillColor=none;fontSize=25;" vertex="1" parent="1">
          <mxGeometry x="385" y="362" width="120" height="40" as="geometry" />
        </mxCell>
        <mxCell id="RXU15xT9O2bPjrLVa0v2-18" value="io event" style="text;html=1;align=center;verticalAlign=middle;resizable=0;points=[];autosize=1;strokeColor=none;fillColor=none;fontSize=25;rotation=60;" vertex="1" parent="1">
          <mxGeometry x="474" y="280" width="110" height="40" as="geometry" />
        </mxCell>
        <mxCell id="RXU15xT9O2bPjrLVa0v2-19" value="recovery" style="text;html=1;align=center;verticalAlign=middle;resizable=0;points=[];autosize=1;strokeColor=none;fillColor=none;fontSize=25;rotation=-60;" vertex="1" parent="1">
          <mxGeometry x="298" y="272" width="120" height="40" as="geometry" />
        </mxCell>
        <mxCell id="RXU15xT9O2bPjrLVa0v2-20" value="destroy" style="text;html=1;align=center;verticalAlign=middle;resizable=0;points=[];autosize=1;strokeColor=none;fillColor=none;fontSize=25;rotation=-40;" vertex="1" parent="1">
          <mxGeometry x="620" y="320" width="110" height="40" as="geometry" />
        </mxCell>
      </root>
    </mxGraphModel>
  </diagram>
</mxfile>
